# xmcd CD database file
#
# Track frame offsets:
#	150
#	17200
#	32413
#	43718
#	55607
#	66392
#	85052
#	102491
#	118413
#	128320
#	142446
#	157990
#	172253
#	180089
#	205672
#	221499
#	235413
#	252379
#	272078
#	286845
#	300252
#
# Disc length: 4197 seconds
#
# Revision: 0
# Processed by: cddbd v1.5.2PL0 Copyright (c) Steve Scherf et al.
# Submitted via: CDex 1.51
#
DISCID=2a106315
DTITLE=Juan Bagatelas - Caminos
DYEAR=1900
DGENRE=Jazz
TTITLE0=No Soy De Aqui, Soy De Allá
TTITLE1=El Cristo De Palacaguina (Carlos Meja Godoy)
TTITLE2=Tu Nombre Me Sabe A Hierba
TTITLE3=El Aparecido (P. Neruda)
TTITLE4=La Fiesta (J.M. Serrat)
TTITLE5=Gracias A La Vida (Violetta Parra)
TTITLE6=Chiquilin (Piero José)
TTITLE7=Razón De Vivir (Victor Heredia)
TTITLE8=Como Poder Pensar (Angel Parra)
TTITLE9=De Que Se Rie (Mario Benedetti)
TTITLE10=Angelitos Negros
TTITLE11=Vuelta Y Vuelta (Edurado Gatti)
TTITLE12=Si Somos Americanos (Rolando Alarcon)
TTITLE13=Sueno De Una Noche De Verano
TTITLE14=Juan Boliche (Piero José)
TTITLE15=La Libertad (Angela Parra)
TTITLE16=Arriba En La Cordelliera (Patricio Manns)
TTITLE17=Sueno Con Serpiente (Silvio Rodriguez)
TTITLE18=Vengo
TTITLE19=Jagundo (Chico Buarque)
TTITLE20=Los Versos De Jose Marti (Jose Marti)
EXTD=
EXTT0=
EXTT1=
EXTT2=
EXTT3=
EXTT4=
EXTT5=
EXTT6=
EXTT7=
EXTT8=
EXTT9=
EXTT10=
EXTT11=
EXTT12=
EXTT13=
EXTT14=
EXTT15=
EXTT16=
EXTT17=
EXTT18=
EXTT19=
EXTT20=
PLAYORDER=
